<svg width="234" height="110" viewBox="0 0 234 110" fill="none" xmlns="http://www.w3.org/2000/svg"><g clip-path="url(#clip0_1236_38480)"><path d="M233.855 0H0v110h234V0h-.145Z" fill="#fff"/><path d="M232.578 1.618v107.649H1.422V1.617h231.156Z" fill="#231F20"/><path d="M69.289 5.44H4.798V23.3h64.49V5.44Zm.024 21.754H4.773V92.81h64.54V27.194ZM4.774 105.396V96.68h12.97v2.042H9.981v1.235h6.558V102H9.98v1.353h8.052v2.043H4.773Zm24.277-6.175c-.072-.285-.361-.475-.747-.593-.362-.12-.82-.167-1.35-.167-1.133 0-1.664.19-1.664.5 0 1.282 9.137.474 9.137 3.656 0 2.019-3.061 2.993-7.425 2.993s-6.92-1.354-7.04-2.921h4.99c.121.308.41.546.869.688.41.143.964.214 1.47.214 1.302 0 2.17-.238 2.17-.641 0-1.33-9.137-.404-9.137-3.729 0-1.852 2.917-2.778 6.895-2.778 4.412 0 6.413 1.235 6.799 2.755h-4.943l-.024.023Zm13.164 1.235h2.049c1.615 0 2.483-.237 2.483-.831s-.892-.903-2.097-.903h-2.435v1.734Zm0 1.9v3.04h-5.208V96.68h7.498c5.28 0 7.04.808 7.04 2.494 0 .997-.82 1.852-2.676 2.137 1.687.332 2.7.546 2.7 2.304 0 1.139-.073 1.519.554 1.519v.262h-5.28c-.12-.19-.265-.76-.265-1.52 0-1.14-.361-1.52-2.772-1.52h-1.591Zm17.744-3.634v1.449h2.17c1.036 0 1.783-.261 1.783-.76 0-.689-1.012-.689-2.121-.689h-1.832Zm0 3.04v1.615h2.266c1.302 0 2.266-.142 2.266-.807 0-.76-1.205-.808-2.869-.808H59.96Zm-5.208 3.634V96.68h7.594c3.569 0 6.413.475 6.413 2.209 0 .902-1.06 1.543-2.073 1.9 1.712.237 2.652 1.068 2.652 1.994 0 1.948-2.7 2.636-6.847 2.636h-7.739v-.023ZM228.744 5.417H73.219v99.979h155.525V5.417Z" fill="#fff"/><path d="m10.102 43.081 49.905-12.277 3.857 13.109-16.056 3.942L58.56 84.688l-17.84 4.37-10.753-36.81-16.032 3.942-3.833-13.109ZM54.1 9.312h4.243l4.919 5.51-.17-2.304V9.312h4.34v10.093h-4.219l-4.942-5.486.096 2.375.073 3.11H54.1V9.313Zm-15.26 0h11.234v2.351h-6.726v1.449h5.69v2.374h-5.69v1.568h6.991v2.35h-11.5V9.313Zm-15.792 0h11.235v2.351h-6.727v1.449h5.69v2.374h-5.69v1.568h6.992v2.35h-11.5V9.313Zm-16.49 0H19.19v2.66h-4.05v7.433h-4.533v-7.433h-4.05v-2.66ZM92.553 50.97l-4.19-14.316h2.569l2.969 10.596 2.87-10.596h2.52l-4.199 14.317h-2.539Zm7.637-11.777v-2.539h2.256v2.54h-2.256Zm0 11.778V40.6h2.256v10.37h-2.256Zm4.043-5.332c0-1.016.202-1.94.605-2.774.404-.833.931-1.458 1.582-1.875a3.992 3.992 0 0 1 2.198-.625c1.367 0 2.441.537 3.222 1.612.781 1.067 1.172 2.317 1.172 3.75 0 1.067-.205 2.03-.615 2.89-.404.86-.938 1.507-1.602 1.944a3.88 3.88 0 0 1-2.168.644c-1.263 0-2.311-.482-3.144-1.445-.834-.964-1.25-2.337-1.25-4.121Zm2.304.146c0 1.048.206 1.843.616 2.383.41.534.905.8 1.484.8.566 0 1.052-.27 1.455-.81.404-.54.606-1.338.606-2.392 0-1.029-.205-1.813-.616-2.354-.41-.54-.901-.81-1.474-.81-.567 0-1.055.27-1.465.81-.404.54-.606 1.331-.606 2.373Zm8.243 5.186V36.654h2.256v14.317h-2.256Zm9.502-3.301 2.236.459c-.3 1.042-.765 1.816-1.397 2.324-.631.501-1.399.752-2.304.752-1.257 0-2.227-.42-2.91-1.26-.808-.976-1.211-2.343-1.211-4.101 0-1.732.407-3.119 1.22-4.16.69-.88 1.582-1.319 2.676-1.319 1.218 0 2.171.45 2.861 1.348.795 1.029 1.192 2.545 1.192 4.55l-.01.313H121c.013.82.196 1.455.547 1.904.358.45.788.674 1.289.674.723 0 1.205-.495 1.446-1.484Zm.127-2.773c-.02-.808-.192-1.413-.518-1.817-.326-.41-.713-.615-1.162-.615-.475 0-.876.211-1.201.635-.332.43-.495 1.028-.489 1.797h3.37Zm11.796 6.074h-2.255v-5.293c0-1.061-.043-1.768-.127-2.12-.085-.351-.245-.621-.479-.81a1.19 1.19 0 0 0-.781-.283c-.378 0-.72.123-1.026.37-.306.242-.52.577-.644 1.007-.124.43-.186 1.24-.186 2.431v4.698h-2.255V40.6h2.089v1.523c.371-.586.788-1.025 1.25-1.318.469-.293.987-.44 1.553-.44.658 0 1.211.173 1.66.518.456.338.769.778.938 1.318.176.534.263 1.309.263 2.324v6.446Zm9.698-7.305-2.217.488c-.163-1.087-.674-1.63-1.533-1.63-.554 0-1 .234-1.338.703-.339.468-.508 1.26-.508 2.373 0 1.23.169 2.1.508 2.607.338.508.791.762 1.357.762.423 0 .772-.144 1.045-.43.274-.293.469-.807.586-1.543l2.217.46c-.456 2.5-1.768 3.75-3.936 3.75-1.386 0-2.415-.528-3.086-1.583-.67-1.055-1.005-2.324-1.005-3.808 0-1.778.377-3.129 1.132-4.053.762-.931 1.758-1.397 2.989-1.397.996 0 1.806.264 2.431.791.632.528 1.084 1.364 1.358 2.51Zm6.64 4.004 2.237.459c-.3 1.042-.765 1.816-1.397 2.324-.631.501-1.4.752-2.305.752-1.256 0-2.226-.42-2.91-1.26-.807-.976-1.211-2.343-1.211-4.101 0-1.732.407-3.119 1.221-4.16.69-.88 1.582-1.319 2.676-1.319 1.217 0 2.171.45 2.861 1.348.794 1.029 1.192 2.545 1.192 4.55l-.01.313h-5.635c.013.82.195 1.455.547 1.904.358.45.788.674 1.289.674.723 0 1.204-.495 1.445-1.484Zm.127-2.773c-.019-.808-.192-1.413-.517-1.817-.326-.41-.713-.615-1.162-.615-.476 0-.876.211-1.202.635-.332.43-.494 1.028-.488 1.797h3.369ZM89.555 58.654h4.697c1.283 0 2.185.117 2.705.352.521.234.96.648 1.319 1.24.358.593.537 1.263.537 2.012 0 .69-.153 1.315-.46 1.875-.305.553-.702.963-1.19 1.23.696.248 1.24.67 1.63 1.27.397.599.596 1.328.596 2.187 0 1.042-.25 1.924-.752 2.647-.501.716-1.094 1.159-1.777 1.328-.475.117-1.579.176-3.31.176h-3.995V58.654Zm2.363 2.383v3.31h1.563c.937 0 1.517-.016 1.738-.048.404-.065.72-.235.947-.508.228-.28.342-.657.342-1.133 0-.423-.094-.765-.283-1.025-.182-.267-.407-.433-.674-.498-.26-.065-1.016-.098-2.266-.098h-1.367Zm0 5.694v3.828h2.198c.963 0 1.582-.05 1.855-.147.273-.104.501-.303.684-.596.189-.3.283-.677.283-1.132 0-.47-.101-.853-.303-1.153a1.468 1.468 0 0 0-.79-.625c-.326-.117-.997-.175-2.013-.175h-1.914Zm9.463 6.24V58.654h2.256v14.317h-2.256Zm4.043-5.332c0-1.016.202-1.94.606-2.774.403-.833.931-1.458 1.582-1.875a3.988 3.988 0 0 1 2.197-.625c1.367 0 2.441.537 3.223 1.612.781 1.067 1.171 2.317 1.171 3.75 0 1.067-.205 2.03-.615 2.89-.403.86-.937 1.507-1.601 1.944a3.885 3.885 0 0 1-2.168.644c-1.263 0-2.311-.482-3.145-1.445-.833-.964-1.25-2.338-1.25-4.121Zm2.305.146c0 1.048.205 1.843.615 2.383.41.534.905.8 1.484.8.567 0 1.052-.27 1.456-.81.403-.54.605-1.338.605-2.392 0-1.029-.205-1.814-.615-2.354-.41-.54-.902-.81-1.475-.81-.566 0-1.054.27-1.465.81-.403.54-.605 1.331-.605 2.373Zm7.715-.146c0-1.016.202-1.94.605-2.774.404-.833.931-1.458 1.582-1.875a3.99 3.99 0 0 1 2.197-.625c1.368 0 2.442.537 3.223 1.612.781 1.067 1.172 2.317 1.172 3.75 0 1.067-.205 2.03-.615 2.89-.404.86-.938 1.507-1.602 1.944a3.88 3.88 0 0 1-2.168.644c-1.263 0-2.311-.482-3.144-1.445-.834-.964-1.25-2.338-1.25-4.121Zm2.304.146c0 1.048.205 1.843.616 2.383.41.534.905.8 1.484.8.566 0 1.051-.27 1.455-.81.404-.54.606-1.338.606-2.392 0-1.029-.206-1.814-.616-2.354-.41-.54-.901-.81-1.474-.81-.567 0-1.055.27-1.465.81-.404.54-.606 1.331-.606 2.373Zm16.045 5.186h-2.099v-1.524c-.345.586-.752 1.026-1.221 1.319-.469.293-.95.44-1.445.44-.951 0-1.781-.473-2.491-1.417-.703-.95-1.054-2.305-1.054-4.062 0-1.771.345-3.106 1.035-4.004.69-.905 1.54-1.358 2.549-1.358.475 0 .918.12 1.328.362.417.24.797.602 1.142 1.084v-5.157h2.256v14.317Zm-6.006-5.41c0 .937.079 1.637.235 2.1.163.455.39.8.683 1.034.3.228.635.342 1.006.342.495 0 .925-.267 1.289-.8.365-.534.547-1.339.547-2.413 0-1.191-.179-2.047-.537-2.568-.351-.528-.801-.791-1.348-.791-.52 0-.963.257-1.328.771-.364.515-.547 1.29-.547 2.325Z" fill="#231F20"/></g><defs><clipPath id="clip0_1236_38480"><path fill="#fff" d="M0 0h234v110H0z"/></clipPath></defs></svg>